<svg width="428" height="331" viewBox="0 0 128 31" fill="none" xmlns="http://www.w3.org/2000/svg">
<g id="Group">
<g id="RightArrow">
<path id="Vector" d="M127.919 10.4518L115.835 24.4059L107.999 24.5352L120.083 10.581L127.919 10.4518Z" fill="#851BCF"/>
<path id="Vector_2" d="M107.999 24.5352L120.083 10.581L127.919 10.4518L107.999 24.5352Z" fill="#851BCF"/>
<path id="Vector_3" d="M118.559 0.333061L127.919 10.4519L120.083 10.5812L110.707 0.462578L118.559 0.333061Z" fill="#851BCF"/>
<path id="Vector_4" d="M120.083 10.5812L110.707 0.462578L118.559 0.333061L120.083 10.5812Z" fill="#851BCF"/>
</g>
<g id="NDUCTION">
<path id="Vector_5" d="M23.541 24.4989H19.8956L15.2908 16.4406V24.4989H11.8372V11.0683H15.4827L20.0874 19.1267V11.0683H23.541V24.4989V24.4989Z" fill="white"/>
<path id="Vector_6" d="M33.3265 11.0683C34.7718 11.0683 35.8687 11.4425 36.617 12.1907C37.3652 12.939 37.7394 14.0358 37.7394 15.4812V20.086C37.7394 21.5314 37.3652 22.6282 36.617 23.3765C35.8687 24.1248 34.7718 24.4989 33.3265 24.4989H25.8437V11.0683H33.3265V11.0683ZM34.2858 15.4812C34.2858 14.3301 33.7102 13.7544 32.559 13.7544H29.2973V21.8128H32.559C33.7102 21.8128 34.2858 21.2372 34.2858 20.086V15.4812Z" fill="white"/>
<path id="Vector_7" d="M48.2916 11.0683H51.7452V20.8535C51.7452 22.1965 51.4414 23.1718 50.8338 23.7794C50.2262 24.387 49.2509 24.6907 47.9079 24.6907H43.495C42.1519 24.6907 41.1766 24.387 40.569 23.7794C39.9615 23.1718 39.6577 22.1965 39.6577 20.8535V11.0683H43.1112V20.8535C43.1112 21.6209 43.495 22.0046 44.2624 22.0046H47.1404C47.9079 22.0046 48.2916 21.6209 48.2916 20.8535V11.0683Z" fill="white"/>
<path id="Vector_8" d="M64.4086 24.307C61.5562 24.5629 59.1899 24.6908 57.3096 24.6908C56.0561 24.6908 55.1351 24.3966 54.5467 23.8082C53.9583 23.2198 53.6641 22.2989 53.6641 21.0453V14.9056C53.6641 13.5626 53.9679 12.5873 54.5755 11.9797C55.1831 11.3721 56.1584 11.0683 57.5014 11.0683H64.4086V13.7544H58.2689C57.5014 13.7544 57.1177 14.1382 57.1177 14.9056V21.0453C57.1177 21.3395 57.204 21.5729 57.3767 21.7456C57.5494 21.9183 57.7701 22.0046 58.0386 22.0046C58.3073 22.0046 58.6015 22.0015 58.9212 21.9951C59.241 21.9887 59.5736 21.9791 59.9189 21.9663C60.2643 21.9535 60.6129 21.9407 60.9646 21.9279C61.3163 21.9151 61.7704 21.8895 62.3268 21.8512C62.8832 21.8128 63.5772 21.768 64.4086 21.7169V24.307V24.307Z" fill="white"/>
<path id="Vector_9" d="M72.4666 24.4989H69.013V13.7544H64.9839V11.0683H76.4958V13.7544H72.4666V24.4989V24.4989Z" fill="white"/>
<path id="Vector_10" d="M84.1709 24.4989H77.2637V21.8128H78.9905V13.7544H77.2637V11.0683H84.1709V13.7544H82.4441V21.8128H84.1709V24.4989Z" fill="white"/>
<path id="Vector_11" d="M94.5311 14.7137C94.5311 13.9463 94.1474 13.5625 93.38 13.5625H90.1182C89.3508 13.5625 88.9671 13.9463 88.9671 14.7137V20.8534C88.9671 21.6209 89.3508 22.0046 90.1182 22.0046H93.38C94.1474 22.0046 94.5311 21.6209 94.5311 20.8534V14.7137ZM97.9847 20.8534C97.9847 22.1964 97.6809 23.1718 97.0733 23.7794C96.4658 24.3869 95.4905 24.6907 94.1474 24.6907H89.3508C88.0077 24.6907 87.0324 24.3869 86.4248 23.7794C85.8173 23.1718 85.5135 22.1964 85.5135 20.8534V14.7137C85.5135 13.3707 85.8173 12.3953 86.4248 11.7878C87.0324 11.1802 88.0077 10.8764 89.3508 10.8764H94.1474C95.4905 10.8764 96.4658 11.1802 97.0733 11.7878C97.6809 12.3953 97.9847 13.3707 97.9847 14.7137V20.8534Z" fill="white"/>
<path id="Vector_12" d="M111.607 24.4989H107.961L103.357 16.4406V24.4989H99.9032V11.0683H103.549L108.153 19.1267V11.0683H111.607V24.4989V24.4989Z" fill="white"/>
</g>
<g id="LeftArrow">
<g id="Group_2">
<g id="right">
<path id="Vector_13" d="M0 20.8638L12.0668 6.90993L19.9025 6.78068L7.83572 20.7345L0 20.8638V20.8638Z" fill="#57C4DC"/>
<path id="Vector_14" d="M19.9025 6.78068L7.83572 20.7345L0 20.8638L19.9025 6.78068V6.78068Z" fill="#57C4DC"/>
<path id="Vector_15" d="M9.35993 30.9998L0 20.8638L7.83571 20.7345L17.1956 30.8705L9.35993 30.9998V30.9998Z" fill="#57C4DC"/>
<path id="Vector_16" d="M7.83558 20.7345L17.1955 30.8705L9.35979 30.9998L7.83558 20.7345Z" fill="#57C4DC"/>
</g>
</g>
</g>
<path id="TheDot" d="M19.3779 5.82865C20.9874 5.82865 22.2922 4.52386 22.2922 2.91432C22.2922 1.30479 20.9874 0 19.3779 0C17.7684 0 16.4636 1.30479 16.4636 2.91432C16.4636 4.52386 17.7684 5.82865 19.3779 5.82865Z" fill="#851BCF"/>
</g>
</svg>
